<?xml version="1.0" encoding="UTF-8"?>
<svg id="Camada_2" data-name="Camada 2" xmlns="http://www.w3.org/2000/svg" viewBox="0 0 782.16 782.16">
  <defs>
    <style>
      .cls-1 {
        fill: #00b0db;
      }

      .cls-2 {
        fill: #fff;
      }

      .cls-3 {
        fill: none;
      }

      .cls-4 {
        stroke: #000;
        stroke-miterlimit: 10;
        stroke-width: 1.24px;
      }
    </style>
  </defs>
  <g id="WORK">
    <g>
      <path class="cls-3" d="M387.32,388.26c1.47.73,2.94,1.47,4.38,2.25l-.11-.16-4.28-2.08Z"/>
      <path class="cls-1" d="M387.78,388.54l3.45,1.68c-1.14-.57-2.29-1.14-3.45-1.68Z"/>
      <circle class="cls-4" cx="391.08" cy="391.08" r="390.46"/>
      <g>
        <g>
          <g>
            <polygon class="cls-2" points="536.59 390.64 455.55 471.68 493.92 510.04 613.31 390.64 494.79 272.12 456.43 310.48 536.59 390.64"/>
            <rect class="cls-2" x="598.55" y="312.88" width="53.95" height="53.95" transform="translate(827.53 1022.48) rotate(-135)"/>
          </g>
          <g>
            <polygon class="cls-2" points="245.57 391.52 326.61 310.48 288.24 272.12 168.85 391.52 287.37 510.04 325.73 471.68 245.57 391.52"/>
            <rect class="cls-2" x="129.65" y="415.33" width="53.95" height="53.95" transform="translate(358.64 18.79) rotate(45)"/>
          </g>
        </g>
        <rect class="cls-2" x="377.61" y="229.94" width="26.94" height="322.27" transform="translate(134.12 -98.67) rotate(17.32)"/>
      </g>
    </g>
  </g>
</svg>