<?xml version="1.0" encoding="UTF-8"?>
<svg id="Camada_2" data-name="Camada 2" xmlns="http://www.w3.org/2000/svg" width="610.83" height="138.66" viewBox="0 0 610.83 138.66">
  <g id="Export">
    <g id="banner-negative">
      <g id="Logo">
        <circle id="shape" cx="69.33" cy="69.33" r="69.33" fill="#02590f"/>
        <path id="logo" d="M108.95,71.96c-4-10.2-15.55-11.06-24.09-6.08-4.49,2.77-8.05,6.82-11.55,10.69-.12.25-.31.31-.43,0-2.52-9.34-5.84-19.3-16.47-21.76-6.95-1.84-15.18,1.04-20.41,5.78-12.91,11.25-7.87,33.13,8.67,37.43,7.56,2.03,15.67-.61,21.2-5.96,2.34-2.09,4.24-4.67,6.08-7.19.12-.12.18-.31.43-.31,1.91,5.84,6.02,11.25,12.17,12.97,1.6.43,3.01.92,4.73.8l-.06-.06c13.64,1.04,24.09-13.64,19.73-26.31ZM70.05,80.38c-1.41,1.29-2.83,2.58-4.3,3.81-2.77,2.34-5.65,4.73-9.22,5.53-6.15,2.03-12.85-1.91-14.75-7.93-2.52-6.76.68-15.3,7.07-18.68l2.27-1.11c5.04-1.97,9.71,1.41,12.54,4.79,2.46,2.77,4,6.15,5.41,9.53.43,1.04.74,2.09,1.23,3.13.12.37.06.68-.25.92ZM86.34,90.22c-5.35-.18-9.16-4.79-11.43-9.22-.12-.31-.06-.49.12-.68.98-1.23,1.78-2.52,2.7-3.81,2.34-3.26,4.67-6.95,8.54-8.54,5.47-2.34,12.35.31,14.2,6.15,3.01,8.97-5.47,16.72-14.14,16.1ZM65.93,54.26c-1.66-5.9.31-10.14,4.61-14.14,1.6-1.17,3.07,4.12,3.13,5.16.61,4.79-.92,9.71-4.3,13.15-.43.37-.55.37-.98-.06-1.04-1.23-1.97-2.52-2.52-4.06l.06-.06ZM81.73,57.77c.31,0,.43.37.25.68-1.72,3.07-4.3,6.64-8.17,6.76-.55-.18-2.95.43-2.21-.68.92-1.41,2.03-2.46,3.13-3.75-.37.12-.61.25-.8.43-.68.68-1.54,1.17-2.09,1.97-1.23.98-.18-1.6,0-2.03,1.91-3.44,6.39-4.36,9.9-3.38ZM62.61,74.11c0,1.04-1.84,1.91-2.77,2.15-5.47.86-11.12.12-16.72.37-.74,0-.86-.18-.61-.92.18-.74.61-1.6,1.48-1.72,1.72-.37,3.44-.31,5.1-.25,2.4.06,4.73.06,7.13.25v-.06h5.78c.25,0,.49-.06.61.18Z" fill="#c9f2ac"/>
      </g>
      <g id="EloOrganico" isolation="isolate">
        <g>
          <path d="M303.3,94.22c-5.49,0-10.26-1.25-14.32-3.74-4.06-2.49-7.2-6.01-9.41-10.54-2.21-4.54-3.32-9.91-3.32-16.13,0-4.7.63-8.92,1.89-12.64,1.26-3.72,3.07-6.89,5.42-9.49,2.35-2.6,5.19-4.62,8.53-6.05,3.33-1.43,7.07-2.14,11.21-2.14,5.6,0,10.43,1.23,14.49,3.7,4.06,2.46,7.2,5.95,9.41,10.46,2.21,4.51,3.32,9.87,3.32,16.09,0,4.7-.64,8.93-1.93,12.68-1.29,3.75-3.11,6.94-5.46,9.58-2.35,2.63-5.2,4.66-8.53,6.09-3.33,1.43-7.1,2.14-11.3,2.14ZM303.3,88.08c4.25,0,7.85-.95,10.79-2.86,2.94-1.9,5.19-4.68,6.76-8.32,1.57-3.64,2.35-8.01,2.35-13.1,0-7.67-1.72-13.62-5.17-17.85-3.44-4.23-8.36-6.34-14.74-6.34-4.14,0-7.69.95-10.63,2.86-2.94,1.9-5.19,4.66-6.76,8.27-1.57,3.61-2.35,7.97-2.35,13.06,0,7.62,1.74,13.57,5.21,17.85,3.47,4.28,8.32,6.43,14.53,6.43Z" fill="#02590f"/>
          <path d="M345.39,94.05c-1.12,0-1.97-.31-2.56-.92s-.88-1.48-.88-2.6v-35.03c0-1.12.28-1.97.84-2.56.56-.59,1.37-.88,2.44-.88s1.89.29,2.48.88c.59.59.88,1.44.88,2.56v6.8h-.84c.9-3.3,2.6-5.85,5.12-7.64,2.52-1.79,5.63-2.74,9.32-2.86.84-.06,1.51.13,2.02.55.5.42.78,1.13.84,2.14.05.95-.17,1.71-.67,2.27-.5.56-1.29.9-2.35,1.01l-1.34.17c-3.81.34-6.73,1.55-8.78,3.65-2.04,2.1-3.07,4.97-3.07,8.61v20.33c0,1.12-.29,1.99-.88,2.6s-1.44.92-2.56.92Z" fill="#02590f"/>
          <path d="M389.57,109.34c-2.97,0-5.87-.35-8.69-1.05-2.83-.7-5.39-1.81-7.69-3.32-.67-.39-1.11-.87-1.3-1.43-.2-.56-.24-1.11-.13-1.64.11-.53.36-1.01.76-1.43s.85-.69,1.39-.8c.53-.11,1.08-.03,1.64.25,2.46,1.51,4.82,2.55,7.06,3.11,2.24.56,4.45.84,6.64.84,3.98,0,6.98-1.06,9.03-3.19,2.04-2.13,3.07-5.21,3.07-9.24v-9.49h.84c-.84,3.25-2.62,5.82-5.33,7.73-2.72,1.9-5.89,2.86-9.53,2.86s-7-.85-9.74-2.56c-2.74-1.71-4.86-4.1-6.34-7.18-1.48-3.08-2.23-6.64-2.23-10.67,0-3.02.42-5.78,1.26-8.27.84-2.49,2.06-4.62,3.65-6.38,1.6-1.76,3.53-3.14,5.8-4.12,2.27-.98,4.8-1.47,7.6-1.47,3.7,0,6.89.94,9.58,2.81,2.69,1.88,4.42,4.41,5.21,7.6l-.84,1.01v-7.81c0-1.12.29-1.97.88-2.56.59-.59,1.41-.88,2.48-.88,1.12,0,1.96.29,2.52.88.56.59.84,1.44.84,2.56v35.03c0,6.22-1.55,10.91-4.66,14.07-3.11,3.16-7.69,4.75-13.73,4.75ZM388.56,86.99c2.63,0,4.9-.6,6.8-1.81,1.9-1.2,3.37-2.93,4.41-5.17,1.04-2.24,1.55-4.87,1.55-7.9,0-4.54-1.15-8.13-3.44-10.79-2.3-2.66-5.4-3.99-9.32-3.99-2.58,0-4.82.6-6.72,1.81-1.9,1.21-3.37,2.91-4.41,5.12-1.04,2.21-1.55,4.83-1.55,7.85,0,4.54,1.15,8.15,3.44,10.84,2.29,2.69,5.38,4.03,9.24,4.03Z" fill="#02590f"/>
          <path d="M433.59,94.22c-2.8,0-5.31-.55-7.52-1.64-2.21-1.09-3.96-2.59-5.25-4.49-1.29-1.9-1.93-4.03-1.93-6.38,0-3.02.77-5.4,2.31-7.14,1.54-1.74,4.09-2.97,7.64-3.7,3.56-.73,8.41-1.09,14.57-1.09h3.78v4.45h-3.7c-4.54,0-8.11.21-10.71.63-2.6.42-4.42,1.13-5.46,2.14-1.04,1.01-1.55,2.44-1.55,4.28,0,2.3.8,4.17,2.39,5.63,1.6,1.46,3.77,2.18,6.51,2.18,2.24,0,4.21-.53,5.92-1.6,1.71-1.06,3.05-2.52,4.03-4.37.98-1.85,1.47-3.98,1.47-6.38v-9.58c0-3.47-.7-5.98-2.1-7.52-1.4-1.54-3.7-2.31-6.89-2.31-1.96,0-3.92.25-5.88.76-1.96.5-4.03,1.32-6.22,2.44-.79.39-1.46.52-2.02.38-.56-.14-1.01-.43-1.34-.88-.34-.45-.53-.97-.59-1.55-.06-.59.07-1.16.38-1.72.31-.56.8-1.01,1.47-1.34,2.46-1.23,4.9-2.13,7.31-2.69,2.41-.56,4.7-.84,6.89-.84,3.53,0,6.44.58,8.74,1.72,2.3,1.15,4,2.88,5.12,5.21,1.12,2.32,1.68,5.31,1.68,8.95v22.76c0,1.12-.27,1.99-.8,2.6-.53.62-1.3.92-2.31.92-1.06,0-1.88-.31-2.44-.92-.56-.62-.84-1.48-.84-2.6v-6.55h.76c-.45,2.13-1.3,3.95-2.56,5.46-1.26,1.51-2.81,2.69-4.66,3.53-1.85.84-3.92,1.26-6.22,1.26ZM448.29,44.57c.34.67.41,1.27.21,1.81-.2.53-.53.91-1.01,1.13-.48.22-.98.29-1.51.21-.53-.08-.97-.41-1.3-.97l-7.48-12.01-7.48,12.01c-.34.56-.77.88-1.3.97-.53.08-1.04.01-1.51-.21-.48-.22-.81-.6-1.01-1.13-.2-.53-.13-1.13.21-1.81l6.97-12.77c.5-.9,1.09-1.57,1.76-2.02.67-.45,1.46-.67,2.35-.67s1.68.22,2.35.67c.67.45,1.26,1.12,1.76,2.02l6.97,12.77Z" fill="#02590f"/>
          <path d="M468.61,94.05c-1.12,0-1.96-.31-2.52-.92-.56-.62-.84-1.48-.84-2.6v-35.03c0-1.12.28-1.97.84-2.56.56-.59,1.37-.88,2.44-.88s1.89.29,2.48.88c.59.59.88,1.44.88,2.56v7.22l-.92-1.01c1.18-3.25,3.09-5.7,5.75-7.35,2.66-1.65,5.73-2.48,9.2-2.48,3.25,0,5.95.59,8.11,1.76,2.16,1.18,3.77,2.95,4.83,5.33,1.06,2.38,1.6,5.39,1.6,9.03v22.51c0,1.12-.29,1.99-.88,2.6s-1.42.92-2.48.92c-1.12,0-1.97-.31-2.56-.92s-.88-1.48-.88-2.6v-22.09c0-3.81-.74-6.59-2.23-8.36-1.48-1.76-3.85-2.65-7.1-2.65-3.75,0-6.73,1.16-8.95,3.49-2.21,2.32-3.32,5.42-3.32,9.28v20.33c0,2.35-1.15,3.53-3.44,3.53Z" fill="#02590f"/>
          <path d="M516.33,42.81c-1.4,0-2.49-.38-3.28-1.13-.78-.76-1.18-1.78-1.18-3.07s.39-2.37,1.18-3.07c.78-.7,1.88-1.05,3.28-1.05s2.56.35,3.32,1.05c.76.7,1.13,1.72,1.13,3.07s-.38,2.31-1.13,3.07c-.76.76-1.86,1.13-3.32,1.13ZM516.33,93.88c-1.12,0-1.96-.32-2.52-.97-.56-.64-.84-1.55-.84-2.73v-34.36c0-1.18.28-2.07.84-2.69.56-.62,1.4-.92,2.52-.92,1.06,0,1.9.31,2.52.92.62.62.92,1.51.92,2.69v34.36c0,1.18-.29,2.09-.88,2.73s-1.44.97-2.56.97Z" fill="#02590f"/>
          <path d="M549.76,94.22c-4.09,0-7.62-.9-10.58-2.69-2.97-1.79-5.25-4.3-6.85-7.52-1.6-3.22-2.39-6.96-2.39-11.21,0-3.25.45-6.16,1.34-8.74.9-2.58,2.21-4.77,3.95-6.59,1.74-1.82,3.82-3.21,6.26-4.16,2.44-.95,5.19-1.43,8.27-1.43,2.02,0,4.12.31,6.3.92,2.18.62,4.17,1.68,5.96,3.19.56.39.92.87,1.09,1.43.17.56.17,1.11,0,1.64-.17.53-.45.98-.84,1.34-.39.37-.88.58-1.47.63-.59.06-1.19-.14-1.81-.59-1.46-1.12-2.94-1.9-4.45-2.35-1.51-.45-2.97-.67-4.37-.67-2.18,0-4.09.35-5.71,1.05-1.62.7-3,1.69-4.12,2.98-1.12,1.29-1.97,2.88-2.56,4.79-.59,1.9-.88,4.12-.88,6.64,0,4.87,1.15,8.72,3.44,11.55,2.29,2.83,5.57,4.24,9.83,4.24,1.4,0,2.84-.22,4.33-.67,1.48-.45,2.98-1.23,4.49-2.35.62-.45,1.2-.64,1.76-.59.56.06,1.04.27,1.43.63.39.36.66.83.8,1.39.14.56.13,1.11-.04,1.64-.17.53-.53,1-1.09,1.39-1.79,1.46-3.75,2.51-5.88,3.15-2.13.64-4.2.97-6.22.97Z" fill="#02590f"/>
          <path d="M587.47,94.22c-3.98,0-7.42-.87-10.33-2.6-2.91-1.73-5.17-4.19-6.76-7.35-1.6-3.16-2.39-6.9-2.39-11.21,0-3.25.45-6.17,1.34-8.78.9-2.6,2.21-4.83,3.95-6.68,1.74-1.85,3.79-3.26,6.17-4.24,2.38-.98,5.05-1.47,8.02-1.47,3.98,0,7.42.87,10.33,2.6,2.91,1.74,5.17,4.19,6.76,7.35,1.6,3.16,2.39,6.9,2.39,11.21,0,3.25-.45,6.16-1.34,8.74-.9,2.58-2.21,4.8-3.95,6.68-1.74,1.88-3.79,3.3-6.17,4.28-2.38.98-5.05,1.47-8.02,1.47ZM587.47,88.76c2.52,0,4.73-.62,6.64-1.85,1.9-1.23,3.37-3.02,4.41-5.38,1.04-2.35,1.55-5.18,1.55-8.48,0-5.1-1.13-8.99-3.4-11.68-2.27-2.69-5.33-4.03-9.2-4.03-2.58,0-4.8.6-6.68,1.81-1.88,1.21-3.33,2.97-4.37,5.29-1.04,2.32-1.55,5.19-1.55,8.61,0,5.04,1.15,8.92,3.44,11.63,2.29,2.72,5.35,4.07,9.16,4.07Z" fill="#02590f"/>
        </g>
        <g>
          <path d="M160.29,93.46c-1.85,0-3.26-.49-4.24-1.47-.98-.98-1.47-2.39-1.47-4.24v-47.8c0-1.85.49-3.26,1.47-4.24.98-.98,2.39-1.47,4.24-1.47h29.99c1.4,0,2.48.37,3.23,1.09.76.73,1.13,1.76,1.13,3.11s-.38,2.48-1.13,3.23c-.76.76-1.83,1.13-3.23,1.13h-25.37v16.3h23.52c1.46,0,2.55.36,3.28,1.09.73.73,1.09,1.79,1.09,3.19s-.37,2.46-1.09,3.19c-.73.73-1.82,1.09-3.28,1.09h-23.52v17.22h25.37c1.4,0,2.48.36,3.23,1.09.76.73,1.13,1.79,1.13,3.19s-.38,2.46-1.13,3.19c-.76.73-1.83,1.09-3.23,1.09h-29.99Z" fill="#400101"/>
          <path d="M217.75,94.3c-4.65,0-8.15-1.33-10.5-3.99-2.35-2.66-3.53-6.57-3.53-11.72v-39.73c0-1.73.45-3.05,1.34-3.95s2.18-1.34,3.86-1.34,2.98.45,3.91,1.34c.92.9,1.39,2.21,1.39,3.95v39.23c0,2.58.55,4.48,1.64,5.71,1.09,1.23,2.65,1.85,4.66,1.85.45,0,.87-.01,1.26-.04.39-.03.78-.07,1.18-.13.78-.11,1.31.1,1.6.63.28.53.42,1.61.42,3.23,0,1.4-.28,2.49-.84,3.28-.56.78-1.48,1.26-2.77,1.43-.56.06-1.15.11-1.76.17-.62.06-1.23.08-1.85.08Z" fill="#400101"/>
          <path d="M248.83,94.3c-4.26,0-7.95-.87-11.09-2.6-3.14-1.73-5.57-4.21-7.31-7.43-1.74-3.22-2.6-7.01-2.6-11.38,0-3.3.49-6.26,1.47-8.86.98-2.6,2.39-4.84,4.24-6.72,1.85-1.88,4.06-3.3,6.64-4.28,2.58-.98,5.46-1.47,8.65-1.47,4.25,0,7.95.87,11.09,2.6,3.14,1.74,5.57,4.2,7.31,7.39,1.74,3.19,2.6,6.97,2.6,11.34,0,3.31-.49,6.27-1.47,8.9-.98,2.63-2.39,4.89-4.24,6.76-1.85,1.88-4.06,3.31-6.64,4.28-2.58.98-5.46,1.47-8.65,1.47ZM248.83,86.32c2.07,0,3.89-.5,5.46-1.51,1.57-1.01,2.79-2.51,3.65-4.49.87-1.99,1.3-4.47,1.3-7.43,0-4.48-.95-7.83-2.86-10.04-1.9-2.21-4.42-3.32-7.56-3.32-2.07,0-3.89.49-5.46,1.47-1.57.98-2.79,2.46-3.65,4.45-.87,1.99-1.3,4.47-1.3,7.43,0,4.42.95,7.77,2.86,10.04,1.9,2.27,4.42,3.4,7.56,3.4Z" fill="#400101"/>
        </g>
      </g>
    </g>
  </g>
</svg>