<?xml version="1.0" encoding="UTF-8"?>
<svg id="Camada_2" data-name="Camada 2" xmlns="http://www.w3.org/2000/svg" viewBox="0 0 1311.02 344.03">
  <defs>
    <style>
      .cls-1, .cls-2 {
        fill: #dbc174;
      }

      .cls-3 {
        font-family: Inter18pt-Medium, 'Inter 18pt';
        font-weight: 500;
      }

      .cls-3, .cls-2 {
        font-size: 158.86px;
      }

      .cls-3, .cls-4 {
        fill: #281614;
      }

      .cls-5 {
        isolation: isolate;
      }

      .cls-2 {
        font-family: Inter18pt-SemiBold, 'Inter 18pt';
        font-weight: 600;
      }

      .cls-6 {
        letter-spacing: -.02em;
      }
    </style>
  </defs>
  <g id="Layer_1" data-name="Layer 1">
    <g>
      <g>
        <circle class="cls-4" cx="172.01" cy="172.01" r="172.01"/>
        <g>
          <g>
            <path class="cls-1" d="M217.08,243.96c-4.27.3-7.78-.91-11.74-1.98-15.25-4.27-25.47-17.69-30.19-32.18-.61,0-.76.46-1.07.76-4.57,6.25-9.3,12.66-15.1,17.84-13.72,13.27-33.85,19.82-52.61,14.79-41.02-10.67-53.52-64.96-21.5-92.87,12.96-11.74,33.4-18.91,50.63-14.33,26.38,6.1,34.61,30.8,40.87,53.98.3.76.76.61,1.07,0,8.69-9.61,17.54-19.67,28.67-26.53,21.2-12.35,49.86-10.22,59.78,15.1,10.83,31.41-15.1,67.86-48.95,65.27M116.74,156.58c-15.86,8.39-23.79,29.58-17.54,46.36,4.73,14.94,21.35,24.7,36.6,19.67,8.84-1.98,16.01-7.93,22.87-13.72,3.66-3.05,7.17-6.25,10.67-9.45.76-.61.91-1.37.61-2.29-1.22-2.59-1.98-5.18-3.05-7.78-3.51-8.39-7.32-16.77-13.42-23.64-7.01-8.39-18.6-16.77-31.11-11.89M244.83,183.88c-4.57-14.49-21.65-21.04-35.22-15.25-9.61,3.96-15.4,13.11-21.2,21.2-2.29,3.2-4.27,6.4-6.71,9.45-.46.46-.61.91-.3,1.68,5.64,10.98,15.1,22.42,28.36,22.87,21.5,1.52,42.54-17.69,35.07-39.95"/>
            <path class="cls-1" d="M159.13,134.63c-4.12-14.64.76-25.16,11.44-35.07,3.96-2.9,7.62,10.22,7.78,12.81,1.52,11.89-2.29,24.09-10.67,32.63-1.07.91-1.37.91-2.44-.15-2.59-3.05-4.88-6.25-6.25-10.06l.15-.15Z"/>
            <path class="cls-1" d="M173.77,151.7c4.73-8.54,15.86-10.83,24.55-8.39.76,0,1.07.91.61,1.68-4.27,7.62-10.67,16.47-20.28,16.77-1.37-.46-7.32,1.07-5.49-1.68,2.29-3.51,5.03-6.1,7.78-9.3-.91.3-1.52.61-1.98,1.07-1.68,1.68-3.81,2.9-5.18,4.88-3.05,2.44-.46-3.96,0-5.03h0Z"/>
          </g>
          <path class="cls-1" d="M135.04,183.42h14.33c.61,0,1.22-.15,1.52.46,0,2.59-4.57,4.73-6.86,5.34-13.57,2.13-27.6.3-41.48.91-1.83,0-2.13-.46-1.52-2.29.46-1.83,1.52-3.96,3.66-4.27,4.27-.91,8.54-.76,12.66-.61,5.95.15,11.74.15,17.69.61v-.15Z"/>
        </g>
      </g>
      <g class="cls-5">
        <text class="cls-2" transform="translate(392.53 214.64)"><tspan x="0" y="0">Elo</tspan></text>
        <text class="cls-3" transform="translate(629.58 214.02)"><tspan x="0" y="0">O</tspan><tspan class="cls-6" x="121.16" y="0">r</tspan><tspan x="178.25" y="0">gânico</tspan></text>
      </g>
    </g>
  </g>
</svg>