<?xml version="1.0" encoding="UTF-8"?>
<svg id="Camada_2" data-name="Camada 2" xmlns="http://www.w3.org/2000/svg" viewBox="0 0 208.63 208.63">
  <defs>
    <style>
      .cls-1 {
        fill: #fff;
      }

      .cls-2 {
        fill: none;
      }

      .cls-3 {
        fill: #00afda;
      }

      .cls-4 {
        stroke: #000;
        stroke-miterlimit: 10;
        stroke-width: 1.24px;
      }
    </style>
  </defs>
  <g id="WORK">
    <g>
      <path class="cls-2" d="M103.31,103.56c.39.2.79.39,1.17.6l-.03-.04-1.14-.56Z"/>
      <path class="cls-3" d="M103.43,103.63l.92.45c-.31-.15-.61-.3-.92-.45Z"/>
      <circle class="cls-1" cx="104.31" cy="104.31" r="104.31" transform="translate(-43.21 104.31) rotate(-45)"/>
      <g>
        <g>
          <g>
            <polygon class="cls-4" points="143.19 104.2 121.54 125.84 131.79 136.09 163.68 104.2 132.02 72.53 121.77 82.78 143.19 104.2"/>
            <rect class="cls-4" x="159.74" y="83.42" width="14.41" height="14.41" transform="translate(220.92 272.76) rotate(-135)"/>
          </g>
          <g>
            <polygon class="cls-4" points="65.44 104.43 87.09 82.78 76.84 72.53 44.94 104.43 76.61 136.09 86.85 125.84 65.44 104.43"/>
            <rect class="cls-4" x="34.47" y="110.79" width="14.41" height="14.41" transform="translate(95.64 5.09) rotate(45)"/>
          </g>
        </g>
        <rect class="cls-4" x="100.71" y="61.26" width="7.2" height="86.1" transform="translate(35.77 -26.32) rotate(17.31)"/>
      </g>
    </g>
  </g>
</svg>